<svg width="88" height="88" viewBox="0 0 88 88" fill="none" xmlns="http://www.w3.org/2000/svg">
<rect x="0.5" y="0.5" width="87" height="87" rx="13.92" fill="#FDEBD0"/>
<path d="M60.8876 55.194L56.7904 51.4441C55.9339 51.4441 53.9571 51.1663 52.9016 50.0552C51.846 48.9441 52.0451 46.5367 52.2766 45.4719L46.8599 40.3331C41.3739 36.6526 33.249 36.5831 31.5823 37.6248C30.249 38.4581 31.0268 39.4535 31.5823 39.847L38.0406 42.2081C38.8971 42.9951 40.61 44.8608 40.61 46.0275C40.61 47.1941 38.2026 50.1246 36.9989 51.4441L37.5545 52.4857L32.0684 57.9024L30.749 57.2079L22.2769 63.4579V73.8744H25.8879L35.6795 61.8606L34.7073 60.8884L40.61 55.194L41.7906 55.9579C43.3183 54.4996 46.7211 52.1385 48.6655 53.458C50.221 54.5135 50.3784 56.8607 50.2627 57.9024L54.221 61.8606L60.8876 55.194Z" fill="#F39915"/>
<path d="M67.7253 35.0691V19.3386C67.7253 18.8033 67.2927 18.3708 66.7582 18.3708H57.0802C56.5456 18.3708 56.113 18.8033 56.113 19.3386V24.6164L45.1481 14.7488C44.9702 14.589 44.7402 14.5 44.5007 14.5C44.1282 14.5 44.1282 14.5 29.3367 27.8129L14.8207 40.8778C14.6233 41.0543 14.5083 41.3053 14.5003 41.5715C14.4938 41.8362 14.5958 42.093 14.7839 42.2804L17.6867 45.184C18.0492 45.5457 18.6336 45.5645 19.0141 45.2224L21.2747 43.2135V73.5315C21.2747 74.0668 21.7073 74.4994 22.2418 74.4994H66.7582C67.2927 74.4994 67.7253 74.0668 67.7253 73.5315V43.2135L69.9859 45.2224C70.1689 45.3858 70.3996 45.4676 70.6289 45.4676C70.8778 45.4676 71.1252 45.3714 71.3133 45.184L74.2161 42.2804C74.4042 42.093 74.5062 41.8362 74.4997 41.5715C74.4917 41.306 74.3767 41.0557 74.1793 40.8778L67.7253 35.0691ZM58.048 20.3065H65.7903V33.3272L58.048 26.3597V20.3065ZM23.2097 64.3273L30.8717 58.3682L34.4813 61.9778L25.6583 72.5637H23.2097V64.3273ZM40.2596 42.7614C38.9344 41.4369 37.2807 40.4633 35.4781 39.9475L32.241 39.0223C32.0522 38.9681 31.9198 38.7937 31.9198 38.5963C31.9198 38.4284 32.0131 38.2773 32.1643 38.202C32.7864 37.8902 33.483 37.7253 34.1789 37.7253C34.1811 37.7253 34.1818 37.7253 34.184 37.7253C37.0681 37.7282 39.8986 38.2433 42.6033 39.2574C44.7894 40.077 46.7367 41.3306 48.3896 42.9835L51.2744 45.8683V47.9697C51.2744 49.1112 51.7185 50.1832 52.5251 50.9905C53.1573 51.622 53.9538 52.0221 54.816 52.1696L51.2035 55.7821C51.0552 54.9206 50.6545 54.1235 50.0237 53.4919C49.2157 52.6861 48.1436 52.2412 47.0029 52.2412C45.1301 52.2412 43.3708 52.9704 42.047 54.2942L41.5971 54.7441L38.1264 51.2741L40.3008 49.0996C41.137 48.2634 41.5971 47.1523 41.5957 45.9284C41.5957 44.7485 41.1363 43.6382 40.2596 42.7614ZM57.0802 52.642L59.583 55.1449L54.1773 60.5506L51.6744 58.0477L57.0802 52.642ZM39.2606 55.1449L34.8227 59.5827L33.2877 58.0477L37.7256 53.6099L39.2606 55.1449ZM65.7903 72.5637H28.1793L36.5349 62.5392C36.8547 62.1551 36.8301 61.5887 36.4749 61.2349L36.1913 60.9514L40.6292 56.5135L40.9128 56.797C41.2911 57.1754 41.9024 57.1754 42.2807 56.797L43.4149 55.6628C44.3734 54.7043 45.648 54.177 47.0029 54.177C47.6264 54.177 48.2131 54.42 48.6543 54.8613C49.0956 55.3026 49.3386 55.8899 49.3386 56.5135V58.0477C49.3386 58.3053 49.4399 58.5512 49.6222 58.7321L53.493 62.6028C53.6818 62.7916 53.9299 62.8864 54.1773 62.8864C54.4254 62.8864 54.6728 62.7916 54.8616 62.6028L61.636 55.8292C62.0143 55.4508 62.0143 54.8389 61.636 54.4605L57.7645 50.5898C57.5836 50.4075 57.3377 50.3062 57.0802 50.3062H55.5459C54.9216 50.3062 54.335 50.0632 53.8937 49.6219C53.4525 49.1806 53.2094 48.5933 53.2094 47.9697V45.4676C53.2094 45.2101 53.1081 44.9641 52.9258 44.7833L49.7575 41.6149C47.9085 39.7652 45.7297 38.3633 43.2789 37.4432C40.3609 36.3495 37.3032 35.7932 34.1862 35.7903C34.184 35.7903 34.1811 35.7903 34.1789 35.7903C33.185 35.7903 32.1882 36.0254 31.2999 36.4695C30.4883 36.8739 29.9841 37.6899 29.9841 38.5963C29.9841 39.6524 30.6923 40.592 31.7086 40.8836L34.9457 41.8088C36.4329 42.2334 37.7972 43.0363 38.9329 44.1706C39.4017 44.64 39.6606 45.2643 39.6606 45.9718C39.6614 46.6358 39.4017 47.2594 38.9329 47.7288L36.0742 50.5876C35.6958 50.9659 35.6958 51.5779 36.0742 51.9562L36.3577 52.2412L31.9198 56.6799L31.6363 56.3963C31.2905 56.0505 30.7415 56.0158 30.3573 56.3167L23.2097 61.8751V41.4926L44.5 22.5692L65.7903 41.4926V72.5637ZM70.5899 43.1701L45.1424 20.551C44.9593 20.3875 44.7293 20.3065 44.5 20.3065C44.2707 20.3065 44.0407 20.3875 43.8576 20.551L18.4101 43.1701L16.873 41.633C20.9955 37.9242 40.6748 20.2125 44.5007 16.7699L72.127 41.633L70.5899 43.1701Z" fill="#264C77"/>
</svg>
