<svg width="88" height="88" viewBox="0 0 88 88" fill="none" xmlns="http://www.w3.org/2000/svg">
<rect x="0.5" y="0.5" width="87" height="87" rx="13.92" fill="#FDEBD0"/>
<path d="M31.6266 59.2225C31.8436 60.7963 31.5614 64.2044 28.696 65.2463" stroke="#264C77" stroke-width="1.62807" stroke-linecap="round"/>
<path d="M56.2682 59.3853C56.0511 60.9591 56.3333 64.3671 59.1987 65.4091" stroke="#264C77" stroke-width="1.62807" stroke-linecap="round"/>
<path d="M37.6509 59.2225V65.5719" stroke="#264C77" stroke-width="1.62807" stroke-linecap="round"/>
<path d="M43.8369 59.0596V65.4091" stroke="#264C77" stroke-width="1.62807" stroke-linecap="round"/>
<path d="M50.0237 58.8969V65.2463" stroke="#264C77" stroke-width="1.62807" stroke-linecap="round"/>
<rect x="16.9742" y="30.8941" width="54.0519" height="25.7235" rx="2.76772" fill="#F39915" stroke="#264C77" stroke-width="1.62807"/>
<path d="M27.3936 52.2217C27.3936 51.4125 28.0496 50.7565 28.8589 50.7565H58.8154C59.6246 50.7565 60.2806 51.4125 60.2806 52.2217V56.6175H27.3936V52.2217Z" fill="white" stroke="#264C77" stroke-width="1.62807"/>
<line x1="44.0001" y1="34.8014" x2="60.2808" y2="34.8014" stroke="#264C77" stroke-width="1.62807" stroke-linecap="round"/>
<line x1="28.0452" y1="53.687" x2="53.4431" y2="53.687" stroke="#264C77" stroke-width="1.62807" stroke-linecap="round"/>
<line x1="64.1878" y1="34.8014" x2="67.7696" y2="34.8014" stroke="#264C77" stroke-width="1.62807" stroke-linecap="round"/>
</svg>
