<svg width="88" height="88" viewBox="0 0 88 88" fill="none" xmlns="http://www.w3.org/2000/svg">
<rect x="0.5" y="0.5" width="87" height="87" rx="13.92" fill="#FDEBD0"/>
<path d="M40.5184 24.8598C36.3888 24.8598 32.3518 26.0844 28.9181 28.3787C25.4844 30.673 22.8082 33.9341 21.2278 37.7494C19.6475 41.5647 19.234 45.763 20.0396 49.8133C20.8453 53.8636 22.8339 57.5841 25.754 60.5042C28.6742 63.4243 32.3946 65.4129 36.4449 66.2186C40.4953 67.0243 44.6935 66.6108 48.5089 65.0304C52.3242 63.4501 55.5852 60.7738 57.8795 57.3401C60.1738 53.9064 61.3984 49.8695 61.3984 45.7398M40.5184 30.0798V45.7398H50.9584" stroke="#264C77" stroke-width="3.48" stroke-linecap="round" stroke-linejoin="round"/>
<path d="M46.6723 38.3799V36.1802L51.288 32.1392C51.634 31.8261 51.9285 31.5398 52.1716 31.2803C52.4146 31.0167 52.6 30.753 52.7277 30.4894C52.8554 30.2216 52.9192 29.9312 52.9192 29.6182C52.9192 29.268 52.843 28.9694 52.6906 28.7222C52.5382 28.4709 52.3281 28.2773 52.0604 28.1414C51.7926 28.0054 51.4857 27.9375 51.1397 27.9375C50.7895 27.9375 50.4827 28.0096 50.219 28.1537C49.9554 28.2938 49.7494 28.4977 49.6011 28.7655C49.4569 29.0332 49.3849 29.3586 49.3849 29.7417H46.4869C46.4869 28.8808 46.6805 28.1373 47.0677 27.5111C47.455 26.885 47.9987 26.403 48.699 26.0652C49.4034 25.7233 50.2211 25.5524 51.152 25.5524C52.1118 25.5524 52.946 25.713 53.6545 26.0343C54.3631 26.3557 54.9109 26.8047 55.2981 27.3814C55.6895 27.9539 55.8851 28.6192 55.8851 29.3772C55.8851 29.8591 55.7883 30.337 55.5947 30.8107C55.4011 31.2844 55.053 31.8076 54.5505 32.3802C54.052 32.9527 53.3435 33.6386 52.4249 34.4378L50.9111 35.8342V35.9145H56.0396V38.3799H46.6723ZM57.3418 36.2791V33.894L62.526 25.7254H64.6454V28.9632H63.4158L60.3819 33.7704V33.8693H67.8893V36.2791H57.3418ZM63.4528 38.3799V35.55L63.5146 34.5057V25.7254H66.3755V38.3799H63.4528Z" fill="#F39915"/>
</svg>
